<?xml version="1.0" encoding="utf-8"?>
<!-- Generator: Adobe Illustrator 19.1.0, SVG Export Plug-In . SVG Version: 6.00 Build 0)  -->
<svg version="1.1" id="Layer_1" xmlns="http://www.w3.org/2000/svg" xmlns:xlink="http://www.w3.org/1999/xlink" x="0px" y="0px"
	 viewBox="0 0 500 500" style="enable-background:new 0 0 500 500;" xml:space="preserve">
<g transform="translate(580.5,280)">
	<path d="M-319.9-20.8c-0.9-0.6-2-0.9-3-0.7c-1.1,0.3-2.3,0.8-3.3,1.5c0.2,5-3.2,11.3-7.5,13.8c0.1,1,0.3,2,0.7,2.9s1.2,1.5,2.1,1.9
		c3.1-3,8.8-4.7,12.7-3.2c1-0.8,1.7-1.6,2.2-2.5c0.6-1.1,0.8-2.5,0.8-4C-318-12.7-319.9-17.1-319.9-20.8z"/>
	<path d="M-301.1-34.5c0.8,1.5,1.7,2.8,2.4,3.4c2.3,2,3.7-5.2,2.6-11c-0.8-4.2-3.1-7.1-5.5-5.8c-0.3,0.1-0.5,0.3-0.7,0.5
		C-300.5-43.4-299-36.2-301.1-34.5z"/>
	<path d="M-331-1.3c-0.5,0.5-1,1-1.3,1.6c-0.4,0.6-0.4,1.3-0.2,2c3.6,1.1,6,3.1,6,5.1c1.1,0.3,2.2,0.5,3.1,0.3
		c2-0.5,4.3-2.3,5.9-4.4c-0.5-1.7,0-4.4,0.8-6.8c-0.5-0.4-1-0.7-1.6-0.9C-321.8-1.6-327.6,0.2-331-1.3z"/>
	<path d="M-337.8-19.7c-4.1,0.1-8.2-0.8-11.1-2.8c-0.3,0.8-0.5,1.6-0.5,2.5c4.4,2.9,7.8,8.9,7.5,13.8c1.2,0.7,2.5,1.1,3.8,1.1
		c0.1,0,0.1,0,0.2,0s0.1,0,0.2,0c1.3,0,2.6-0.4,3.8-1.1c-0.3-5,3.1-11,7.5-13.8c0-0.9-0.2-1.8-0.5-2.5
		C-329.7-20.5-333.7-19.6-337.8-19.7z"/>
	<path d="M-355.5-32.9c0.9,0.9,2,1.6,3.1,1.9c1.2-5.3,6.3-11.2,11.4-13.1c0-0.3-0.1-0.7-0.2-1c-0.3-1.2-1.1-2.2-2.2-3.1
		c-4.3,0.8-9.9-0.2-11.7-3c-1.1,0.3-2.1,0.9-2.8,1.8c-0.7,0.9-1.2,2-1.5,3.3C-355.9-44.3-354.7-38-355.5-32.9z"/>
	<path d="M-304.3-34.6c0.5,0.2,1,0.4,1.5,0.5c0.7,0.1,1.2,0,1.6-0.3c-2.2-4.1-4-10.4-1.2-12.9c-0.2-0.5-0.4-0.9-0.6-1.3
		c-0.1-0.2-0.3-0.5-0.5-0.7c-0.7,1.6-2.9,1.5-6.6-2.3c-1,0.1-1.7,0.6-1.7,1.5c0,1.2,0.2,2.5,0.4,3.9
		C-307.7-44.7-305-39.5-304.3-34.6z"/>
	<path d="M-303.7-26.3c-0.3-0.7-0.8-1.2-1.4-1.6c-2.2,2.6-8.1,3-11.6,1.2c-1.1,0.7-1.9,1.5-2.4,2.4c-0.5,1-0.8,2.2-0.8,3.5
		c2.6,1.7,4.4,6.1,4.6,9.8c0.9,0.6,1.8,0.8,2.8,0.7c0.8-0.1,1.7-0.4,2.4-0.8c0.4-5.6,2.7-11.4,6.5-14.8
		C-303.6-26-303.6-26.2-303.7-26.3z"/>
	<path d="M-359-26.7c0.9-0.5,1.7-1.1,2.1-1.9c0.7-1.2,1.1-2.7,1.4-4.3c-3.2-3.1-4.8-9-3.8-13.4c-0.6-0.4-1.3-0.6-2.1-0.6
		c-1,0-1.9,0.2-2.8,0.6c-0.9,4.9-3.2,10.1-7.2,11.7c-0.3,1.9-0.3,3.8,0.1,5.4c0.1,0.5,0.4,1,0.7,1.4
		C-367.7-29.7-362.3-28.9-359-26.7z"/>
	<path d="M-372.1-25.9c-1.6-1.4-3.4-2.4-5.5-2.8c-3.7-0.7-3.4,7.1-0.1,13.2c1.2,2.2,3.7,4.8,6,6.5c0.5-1.6,3.4-1.5,6.2-0.6
		c0-0.2,0-0.5,0-0.7c0-0.3,0-0.5-0.1-0.8C-370.4-13.7-374-21.2-372.1-25.9z"/>
	<path d="M-373.3-47.4c-0.2-0.2-0.5-0.4-0.7-0.5c-2.5-1.3-4.7,1.7-5.5,5.8c-1.1,5.8,0.3,13,2.6,11c0.7-0.6,1.6-1.8,2.4-3.4
		C-376.6-36.2-375.1-43.4-373.3-47.4z"/>
	<path d="M-344.6-1.3c0.9-0.4,1.6-1,2.1-1.9c0.4-0.9,0.6-1.9,0.7-2.9c-4.3-2.5-7.7-8.9-7.5-13.8c-1.1-0.7-2.2-1.2-3.3-1.5
		c-1.1-0.2-2.1,0-3,0.7c0,3.7-1.9,8.1-4.6,9.8c-0.1,1.5,0.2,2.9,0.8,4c0.5,0.9,1.3,1.8,2.2,2.5C-353.5-6-347.7-4.3-344.6-1.3z"/>
	<path d="M-298-28.7c-2.1,0.4-3.9,1.4-5.5,2.8c1.9,4.8-1.7,12.3-6.5,14.8c0,0.3,0,0.5-0.1,0.8c0,0.3,0,0.5,0,0.7
		c2.8-0.9,5.7-0.9,6.2,0.6c2.4-1.7,4.8-4.3,6.1-6.6C-294.6-21.6-294.3-29.4-298-28.7z"/>
	<path d="M-320.4-55.8c0.9,0.1,1.8,0.2,2.6,0.1c1.4-0.1,2.3-1,2.8-2.2c-2-3.1-3.2-6.1-0.9-6.2c-0.5-0.8-1.2-1.4-2-1.8
		c-0.9-0.4-2.5-1-4.3-1.5c-0.6,0.9-5.9,1.1-9.8,0.8c-0.3,0.5-0.4,1-0.4,1.7c0,0.2,0,0.3,0.1,0.5C-327.5-63.8-322-60.1-320.4-55.8z"
		/>
	<path d="M-343.6-66.6L-343.6-66.6c4.8-0.4,7.2-6,0.6-5.7c-4.3,0.2-9,1.1-10.4,4.6c0,0.1,0,0.2,0,0.3
		C-349.7-68.4-345-68.9-343.6-66.6z"/>
	<path d="M-343.1,2.3c0.2-0.7,0.2-1.4-0.2-2c-0.3-0.6-0.8-1.1-1.3-1.6c-3.3,1.5-9.2-0.3-12.7-3.2c-0.6,0.2-1.2,0.5-1.7,0.9
		c0.9,2.3,1.3,5.1,0.8,6.7c1.6,2.1,4,4,5.9,4.5c0.9,0.2,2,0.1,3.1-0.3C-349.2,5.5-346.7,3.4-343.1,2.3z"/>
	<path d="M-343.2-64.4c0-0.2,0.1-0.3,0.1-0.5c0-0.7-0.1-1.3-0.4-1.7c-3.8,0.3-9.2,0.1-9.8-0.8c-1.9,0.5-3.5,1.1-4.3,1.5
		s-1.5,1-2,1.8c2.2,0.2,1.1,3.1-0.9,6.1c0.4,1.3,1.4,2.2,2.8,2.3c0.8,0,1.7,0,2.6-0.1C-353.6-60.1-348.1-63.8-343.2-64.4z"/>
	<path d="M-320.2-32.9c0.2,1.6,0.7,3.1,1.4,4.3c0.4,0.8,1.2,1.4,2.1,1.9c3.4-2.2,8.8-3,11.6-1.2c0.3-0.4,0.6-0.9,0.7-1.4
		c0.4-1.6,0.4-3.5,0.1-5.4c-3.9-1.7-6.3-6.9-7.2-11.7c-0.9-0.4-1.8-0.6-2.8-0.6c-0.8,0-1.5,0.3-2.1,0.6
		C-315.4-41.9-317-36-320.2-32.9z"/>
	<path d="M-332.3-48.3c-1.1,0.9-1.8,2-2.2,3.1c-0.1,0.3-0.2,0.7-0.2,1c5.1,1.9,10.3,7.8,11.4,13.1c1.1-0.3,2.2-1,3.1-1.9
		c-0.8-5.1,0.5-11.4,3.8-13.4c-0.3-1.2-0.7-2.4-1.5-3.3c-0.7-0.9-1.6-1.4-2.8-1.8C-322.4-48.5-328-47.5-332.3-48.3z"/>
	<path d="M-355.8-20.8c0-1.3-0.2-2.5-0.8-3.5c-0.4-0.9-1.3-1.7-2.4-2.4c-3.5,1.8-9.4,1.4-11.6-1.2c-0.6,0.4-1.1,0.9-1.4,1.6
		c-0.1,0.1-0.1,0.2-0.1,0.3c3.8,3.4,6.1,9.2,6.5,14.8c0.8,0.4,1.6,0.7,2.4,0.8c1,0.1,1.9-0.1,2.8-0.7
		C-360.2-14.7-358.3-19.1-355.8-20.8z"/>
	<path d="M-332.5,2.3c-1.6-0.5-3.4-0.8-5.3-0.8s-3.7,0.3-5.3,0.8c-0.6,2.1-3.4,4.2-6,5.1c0,0.7,0.3,1.4,1.1,2c2.5,2.1,6.4,3,10.3,3
		c3.9,0.1,7.8-0.9,10.3-3c0.7-0.6,1.1-1.3,1.1-2C-329.1,6.6-331.9,4.4-332.5,2.3z"/>
	<path d="M-322.3-67.4c0.1-0.1,0.1-0.2,0-0.3c-1.4-3.5-6.1-4.4-10.4-4.6c-6.6-0.3-4.2,5.2,0.6,5.7l0,0
		C-330.6-68.9-326-68.4-322.3-67.4z"/>
	<path d="M-364.2-46.4c0.2-1.3,0.4-2.6,0.4-3.9c0-1-0.7-1.4-1.8-1.5c-3.7,3.8-5.8,3.9-6.6,2.4c-0.2,0.2-0.3,0.4-0.5,0.6
		c-0.2,0.4-0.4,0.8-0.6,1.3c2.8,2.5,1,8.8-1.2,12.9c0.4,0.3,0.9,0.5,1.6,0.3c0.5-0.1,1-0.3,1.5-0.5
		C-370.6-39.5-367.9-44.7-364.2-46.4z"/>
	<path d="M-359-3.5L-359-3.5L-359-3.5c-0.5-1.5-1.1-2.8-1.8-3.6c-0.9-1-2.7-2-4.6-2.6c-0.2,3.5-3.2,2.8-6.2,0.6l0,0
		c-0.1,0.2-0.1,0.4-0.1,0.7c0.4,5.8,5.8,12.3,11.6,13c1.1,0.1,1.7-0.5,2-1.5C-360,0.8-360.8-2-359-3.5z"/>
	<path d="M-365.6-51.7c0.2-0.2,0.3-0.4,0.5-0.5c1.3-1.4,3.1-3.6,4.4-5.7l0,0c-0.6-1.8-0.3-4.3,0.9-6.1l0,0c-0.2,0-0.4,0-0.7,0
		c-4.5,0.5-8,4.3-10.6,8.7c-1.4,2.3-1.8,4.8-1.1,6.1l0,0C-370.8-50.8-367.6-51.9-365.6-51.7z"/>
	<path d="M-304.7-55.4c-2.6-4.3-6-8.1-10.6-8.7c-0.2,0-0.4,0-0.6,0l0,0c1.2,1.8,1.5,4.4,0.9,6.2l0,0c1.3,2.1,3,4.2,4.3,5.6l0.5,0.6
		c2-0.2,5.2,0.9,6.6,2.3v-0.1C-302.9-50.7-303.4-53.2-304.7-55.4z"/>
	<path d="M-304-9c-3,2.2-6,2.8-6.2-0.6c-1.9,0.6-3.7,1.5-4.6,2.6c-0.7,0.8-1.4,2.1-1.9,3.5l0,0l0.1,0.1c1.8,1.5,0.9,4.3-0.9,6.7
		c0.3,1,0.9,1.6,2,1.5c5.8-0.7,11.3-7.2,11.6-13C-303.9-8.5-303.9-8.7-304-9L-304-9z"/>
	<path d="M-323.3-31L-323.3-31c-5.5,1.5-12-7.2-11.4-13.2c-1.1-0.4-2.1-0.6-3.1-0.6s-2.1,0.2-3.1,0.6c0.6,5.9-5.9,14.6-11.4,13.2
		h-0.1c0.1-0.3,0.2-0.6,0.3-1c-0.8,2.5-0.7,5,0.6,6.9c0.7,1,1.6,1.9,2.7,2.6c0.1-0.3,0.3-0.6,0.4-0.9c1.8-3.1,6.2-4.7,10.6-4.8
		c4.4,0.1,8.8,1.7,10.6,4.8c0.2,0.3,0.3,0.6,0.4,0.9c1.1-0.7,2-1.6,2.7-2.6c1.3-1.9,1.3-4.3,0.6-6.8
		C-323.4-31.6-323.3-31.3-323.3-31z"/>
	<path d="M-320.4-55.8c-5.3-0.7-11.5-3.9-12-8.6c-1.2-0.1-2.4-0.1-3.5,0.1c-0.8,0.2-1.5,0.7-1.9,1.3v0.5c1.3,2.3,1.2,6.1,0.1,9.2
		c-0.5,1.3,1.2,3,2.1,3.7c0.9,0.6,2,1,3.3,1.3c3-2.6,8.2-4.1,11.7-3c0.4-0.6,0.6-1.3,0.6-2C-320-54.2-320.1-55-320.4-55.8z"/>
	<path d="M-339.8-64.2c-1.1-0.3-2.3-0.3-3.5-0.1c-0.5,4.7-6.7,7.9-12,8.6c-0.3,0.8-0.5,1.6-0.5,2.4c0,0.8,0.2,1.4,0.6,2
		c3.6-1,8.7,0.4,11.7,3c1.3-0.3,2.4-0.7,3.3-1.3c0.2-0.1,0.3-0.2,0.5-0.4c0.2-0.1,0.3-0.3,0.4-0.4c0.1-0.2,0.3-0.3,0.4-0.5
		s0.3-0.4,0.4-0.5c0.1-0.2,0.2-0.4,0.3-0.6c0-0.1,0.1-0.1,0.1-0.2s0-0.1,0-0.2s0-0.1,0-0.2s0-0.2,0-0.3c0-0.2-0.1-0.5-0.1-0.7
		s-0.1-0.5-0.2-0.7c-0.1-0.4-0.2-0.8-0.3-1.2c-0.2-0.8-0.3-1.7-0.3-2.6c0-1.5,0.2-3.1,0.9-4.4V-63
		C-338.3-63.6-338.9-64.1-339.8-64.2z"/>
</g>
</svg>
